<svg width="130" height="180" viewBox="0 0 130 180" fill="none" xmlns="http://www.w3.org/2000/svg">
<g clip-path="url(#clip0_988_9705)">
<path d="M58.075 128.576H57.4269C49.3258 126.091 41.3867 123.175 33.3396 120.528C32.7456 120.312 32.3675 119.934 32.0975 119.394C30.8553 116.802 29.7211 114.156 28.533 111.509C27.0748 108.377 25.6706 105.19 24.2664 102.004C24.1044 101.626 24.0504 101.194 23.8344 100.816V100.33C24.4824 98.6015 25.4546 96.9273 26.3187 95.3071C27.8309 92.3907 29.3431 89.5283 30.9093 86.6119C34.0417 80.6171 37.2282 74.6223 40.3606 68.6275C41.0087 67.4393 41.6568 66.1972 42.2508 64.955C42.4669 64.4689 42.5209 64.0909 42.2508 63.6048C39.5505 58.5821 36.9581 53.5054 34.2578 48.4288C32.8536 45.7284 31.4494 43.028 29.9912 40.3277C28.0469 36.6552 26.1567 32.9287 24.2124 29.2562C24.0504 28.9321 24.0504 28.5541 23.8344 28.23V27.744C24.3744 26.0157 25.1845 24.4495 25.8866 22.8293C27.9389 18.1307 29.9912 13.378 32.0435 8.67941C32.3675 7.8693 32.8536 7.38323 33.7177 7.1132C38.0923 5.81702 42.4129 4.41283 46.7874 3.06265C49.8118 2.09052 52.8903 1.11839 55.9147 0.200264C56.3467 0.0382425 56.8328 0.0922498 57.2649 -0.123779H57.9129C58.7771 0.308279 59.3711 1.06438 60.0732 1.71247C61.9095 3.4407 63.7457 5.11493 65.636 6.84316C68.9844 9.92157 72.3329 13.054 75.6813 16.1324C77.4096 17.6986 79.1378 19.3188 80.866 20.9391C83.7284 23.5854 86.5908 26.2858 89.5072 28.9321C91.2354 30.4983 92.9097 32.1186 94.6379 33.6848C97.4463 36.2771 100.255 38.9235 103.117 41.5698C104.143 42.542 105.223 43.5141 106.249 44.4862C106.519 44.7563 106.736 45.0263 106.898 45.3503V83.3175C105.385 84.9377 103.657 86.3959 102.037 87.9081C101.065 88.7722 100.093 89.6903 99.1745 90.6084C96.9602 92.7687 94.6919 94.821 92.4236 96.9273C88.9671 100.168 85.5107 103.408 82.0542 106.595C79.5159 108.971 76.9775 111.347 74.4392 113.724C70.9287 117.018 67.4182 120.258 63.9077 123.553C62.2335 125.119 60.6133 126.739 58.8311 128.197C58.615 128.36 58.399 128.522 58.129 128.684L58.075 128.576Z" fill="#373737"/>
<path d="M104.683 64.3069C104.683 69.7616 104.683 75.2163 104.683 80.6711C104.683 81.3191 104.521 81.6432 103.873 81.9132C98.5804 84.0195 93.2877 86.1798 87.995 88.3401C87.2929 88.6101 86.9149 88.6641 86.4828 87.854C82.4323 80.239 78.3277 72.678 74.2232 65.063C73.9531 64.5769 73.9531 64.1988 74.2232 63.6588C78.3817 55.9897 82.5403 48.2667 86.6988 40.5977C86.9689 40.1116 87.1849 40.0036 87.725 40.2196C93.1797 42.3799 98.5804 44.5402 104.035 46.7005C104.575 46.9165 104.683 47.2406 104.683 47.7806C104.683 53.2894 104.683 58.7981 104.683 64.3609V64.3069Z" fill="#1DBFD5"/>
<path d="M100.633 42.974C99.0665 42.3799 97.6083 41.7858 96.2041 41.2457C93.1797 40.0576 90.1553 38.8154 87.1309 37.5733C86.7529 37.4112 86.4288 37.3032 85.9968 37.4652C82.0002 39.2475 78.0037 40.9757 74.0611 42.7039C71.0907 44.0001 68.1203 45.2963 65.1499 46.5925C64.6099 46.8625 64.3939 46.7005 64.1238 46.2144C60.2893 39.0855 56.4008 31.9565 52.5663 24.7735C51.8642 23.4774 51.2161 22.2352 50.514 20.939C50.298 20.561 50.298 20.1829 50.46 19.8049C52.8363 14.4041 55.2126 9.05742 57.5349 3.65669C57.805 3.0086 58.021 3.0086 58.5071 3.49467C63.2597 7.92326 68.0123 12.3519 72.765 16.7264C79.6779 23.1533 86.6448 29.5802 93.5578 36.007C95.7181 38.0053 97.8784 40.0036 100.039 42.0018C100.255 42.2179 100.525 42.3799 100.633 42.92V42.974Z" fill="#1DBFD5"/>
<path d="M100.687 85.6399C99.7146 86.8821 98.6344 87.6922 97.6623 88.6103C92.3156 93.633 86.9148 98.6556 81.5141 103.678C74.7092 110.051 67.8503 116.424 61.0453 122.851C60.1812 123.661 59.3711 124.417 58.507 125.227C57.8049 125.875 57.7509 125.875 57.4269 125.065C55.3206 120.313 53.2683 115.56 51.162 110.807C50.946 110.321 50.838 109.835 50.5679 109.457C50.0279 108.593 50.2439 107.891 50.676 107.081C54.7805 99.4658 58.8851 91.8507 62.9896 84.2897C63.3137 83.6416 63.7457 83.0475 64.0157 82.3995C64.2318 81.8594 64.5018 81.8054 65.0419 82.0214C68.3903 83.5336 71.7928 84.9918 75.1412 86.45C78.7057 88.0162 82.3242 89.5284 85.8887 91.0946C86.3208 91.2567 86.6988 91.2026 87.0769 91.0946C91.1814 89.6364 95.1239 87.8542 99.1745 86.288C99.5525 86.126 99.9846 86.0179 100.633 85.8019L100.687 85.6399Z" fill="#FE8700"/>
<path d="M44.0871 66.8452C45.2753 69.1675 46.5175 71.3818 47.6516 73.6501C47.9757 74.2982 48.4077 74.6763 49.0558 74.9463C53.2684 76.7826 57.4809 78.6728 61.6935 80.455C62.3416 80.7251 62.2876 80.9411 62.0176 81.4812C57.535 89.7443 53.1064 98.0074 48.6238 106.271C48.4077 106.703 48.2457 106.811 47.7596 106.649C40.9007 104.488 34.0418 102.328 27.1829 100.168C26.8588 100.06 26.5348 100.006 26.8048 99.4656C32.4756 88.6641 38.1463 77.8627 43.8171 67.0072C43.8171 67.0072 43.9251 66.9532 44.0331 66.8452H44.0871Z" fill="#FEFEFE"/>
<path d="M44.0332 61.9305C42.845 59.7162 41.7649 57.6099 40.6308 55.5036C36.0941 46.8085 31.5575 38.1673 26.9669 29.4721C26.5889 28.824 26.7509 28.608 27.453 28.392C34.2039 26.2857 40.9548 24.1794 47.7057 22.0191C48.1918 21.8571 48.4618 21.9111 48.7318 22.3972C53.1604 30.6603 57.643 38.9774 62.1256 47.2405C62.3417 47.6726 62.3957 47.8346 61.8556 48.0506C57.643 49.8869 53.4305 51.7231 49.2179 53.5594C48.5158 53.8834 47.9757 54.3155 47.5977 55.0176C46.4635 57.2859 45.2754 59.5002 44.0332 61.8765V61.9305Z" fill="#FEFEFE"/>
<path d="M63.3677 78.8349C63.1516 78.7808 62.9896 78.6728 62.8816 78.6188C58.723 76.7826 54.5105 74.9463 50.3519 73.1101C49.9199 72.9481 49.6498 72.678 49.4338 72.246C48.1376 69.7616 46.8955 67.3313 45.5993 64.901C45.3832 64.4689 45.3832 64.1449 45.5993 63.7668C46.8955 61.2825 48.1916 58.7982 49.4878 56.3138C49.6498 55.9898 49.9199 55.7737 50.2439 55.6117C54.4565 53.7755 58.669 51.9392 62.8816 50.103C63.3677 49.887 63.5837 49.887 63.8537 50.427C66.2301 54.9096 68.6604 59.3922 71.0907 63.8208C71.3067 64.1989 71.3067 64.5229 71.0907 64.901C68.6604 69.3836 66.2301 73.8662 63.7997 78.4028C63.6917 78.5648 63.6377 78.8348 63.4217 78.8889L63.3677 78.8349Z" fill="#FEFEFE"/>
<path d="M27.0208 26.2318C27.6149 24.8276 28.155 23.5855 28.695 22.3433C30.4773 18.2388 32.2595 14.1882 34.0417 10.0837C34.2038 9.6516 34.4738 9.38156 34.9059 9.21954C41.7108 7.11325 48.4617 4.95296 55.2666 2.84668C55.4286 3.11672 55.1586 3.33274 55.1046 3.49477C52.8363 8.67946 50.568 13.8642 48.2997 19.0489C48.1376 19.4269 47.9216 19.6429 47.5436 19.805C40.7386 21.9112 33.9877 24.0715 26.9668 26.2318H27.0208Z" fill="#FEFEFE"/>
<path d="M27.0209 102.436C28.5871 102.922 29.9373 103.3 31.2334 103.732C36.5262 105.406 41.8189 107.081 47.1656 108.701C47.5976 108.863 47.8677 109.025 48.0297 109.457C50.244 114.318 52.4583 119.124 54.6726 123.985C54.8886 124.471 55.0506 124.957 55.3207 125.605C53.2684 124.903 51.3241 124.255 49.3799 123.553C44.5192 121.879 39.6586 120.204 34.7979 118.476C34.5279 118.368 34.2578 118.314 34.0958 117.99C31.7735 112.859 29.5052 107.783 27.0749 102.436H27.0209Z" fill="#FEFEFE"/>
<path d="M83.7284 87.692C79.2458 85.7477 74.7092 83.7495 70.2266 81.8052C68.8764 81.2111 67.4722 80.6171 66.068 80.023C65.636 79.861 65.582 79.6449 65.798 79.2129C67.9583 75.2703 70.0646 71.2738 72.2248 67.2773C72.6569 66.4672 72.8189 67.1692 72.9809 67.4393C75.6273 72.3539 78.2737 77.2686 80.974 82.2373C81.9462 84.0195 82.9183 85.8018 83.8904 87.584C83.8904 87.584 83.7824 87.692 83.7284 87.692Z" fill="#FE8700"/>
<path d="M83.6744 41.1377C83.4584 41.8938 83.0804 42.4339 82.7563 43.028C79.5159 49.0768 76.2214 55.1256 72.981 61.1204C72.873 61.3365 72.819 61.6065 72.5489 61.6065C72.2789 61.6065 72.2249 61.3365 72.1169 61.1204C70.0106 57.2319 67.9043 53.3434 65.798 49.4009C65.582 49.0228 65.582 48.8608 66.0141 48.6448C71.6848 46.1604 77.4096 43.6761 83.0803 41.1918C83.1884 41.1918 83.3504 41.1377 83.6204 41.0837L83.6744 41.1377Z" fill="#1DBFD5"/>
<path d="M20.7579 170.022C21.1016 170.022 21.4221 170.004 21.7248 169.981V178.656C21.4939 178.668 21.2625 178.674 21.0307 178.674H14.5826C12.8846 178.703 11.1961 178.414 9.60479 177.82C8.19869 177.287 6.92815 176.448 5.88436 175.365C4.83567 174.249 4.03858 172.92 3.54682 171.469C2.98185 169.801 2.70514 168.048 2.72854 166.287V156.863H10.8868V166.509C10.8551 166.991 10.9277 167.474 11.0998 167.926C11.2718 168.377 11.5392 168.786 11.8837 169.125C12.8023 169.809 13.9411 170.13 15.0818 170.026H20.7579V170.022Z" fill="#373737"/>
<path d="M33.4249 152.622V166.011C33.4363 167.686 33.1471 169.349 32.5711 170.921C32.0256 172.414 31.1914 173.785 30.1163 174.955C29.0216 176.126 27.6939 177.055 26.2186 177.683C25.9104 177.819 25.5953 177.932 25.2639 178.039V152.622H33.4249Z" fill="#373737"/>
<path d="M54.5103 157.285H36.8955C36.9768 156.897 37.082 156.514 37.2105 156.139C37.5822 155.006 38.1751 153.958 38.9548 153.056C39.7348 152.159 40.6949 151.438 41.7724 150.938C42.9589 150.394 44.2522 150.124 45.557 150.148C46.7513 150.143 47.9389 150.327 49.0756 150.693C50.1696 151.045 51.1711 151.636 52.0063 152.425C52.8919 153.288 53.5764 154.335 54.0111 155.493C54.2387 156.074 54.4096 156.676 54.5212 157.29L54.5103 157.285Z" fill="#373737"/>
<path d="M54.7477 160.826V167.768C54.7786 169.553 54.4976 171.33 53.9171 173.018C53.4164 174.446 52.6081 175.746 51.5496 176.827C50.5212 177.851 49.285 178.641 47.9246 179.146C46.4604 179.684 44.9104 179.952 43.3505 179.935H36.6338L36.136 171.232H43.8428C44.5902 171.307 45.3385 171.097 45.9376 170.644C46.1604 170.385 46.3288 170.084 46.4329 169.759C46.5369 169.434 46.5744 169.091 46.5431 168.751H45.8257C44.2691 168.796 42.7156 168.584 41.2284 168.122C40.1521 167.78 39.1819 167.167 38.4108 166.342C37.7149 165.536 37.2332 164.567 37.0102 163.525C36.8124 162.635 36.6933 161.73 36.6542 160.819H54.7477V160.826Z" fill="#373737"/>
<path d="M71.2345 157.231V166.778C71.2448 168.411 70.953 170.032 70.3739 171.559C69.8361 173.012 69.0292 174.351 67.9954 175.505C66.9639 176.642 65.7108 177.557 64.3132 178.193C62.8193 178.869 61.1945 179.207 59.5549 179.183H57.3101L56.5859 170.532H58.5675C59.8024 170.651 61.0365 170.298 62.0207 169.542C62.3514 169.221 62.6118 168.835 62.7856 168.408C62.9593 167.982 63.0425 167.523 63.0299 167.063V157.243H71.2345V157.231Z" fill="#373737"/>
<path d="M71.2331 147.341H63.0286V153.523H71.2331V147.341Z" fill="#373737"/>
<path d="M22.7818 152.692H14.5826V158.869H22.7818V152.692Z" fill="#373737"/>
<path d="M101.764 146.22H94.6031C93.3403 146.205 92.0868 146.437 90.9127 146.902C89.8477 147.322 88.8864 147.968 88.0951 148.795C87.3128 149.632 86.7075 150.619 86.3153 151.696C86.0894 152.29 85.9285 152.907 85.8353 153.536H102.191L101.764 146.232V146.22ZM102.855 160.738C102.601 159.837 102.147 159.006 101.527 158.305C101.127 157.883 100.667 157.521 100.163 157.231H85.6866V164.547H94.3781C94.4715 164.547 94.5639 164.567 94.6488 164.606C94.7338 164.644 94.8094 164.701 94.8704 164.772C94.9449 164.842 95.0044 164.926 95.0452 165.02C95.086 165.114 95.1073 165.215 95.1077 165.317C95.0965 165.587 95.0099 165.847 94.8577 166.069C94.7056 166.292 94.494 166.467 94.2472 166.575C93.2656 166.979 92.2034 167.15 91.1445 167.073H87.896C86.7554 167.175 85.6169 166.854 84.6979 166.171C84.354 165.832 84.0875 165.423 83.9166 164.972C83.7457 164.52 83.6745 164.037 83.7078 163.555V157.226H75.5536V163.325C75.527 165.086 75.8038 166.84 76.3719 168.507C76.8571 169.96 77.6551 171.289 78.7095 172.4C79.7514 173.485 81.0224 174.323 82.4299 174.854C84.0205 175.451 85.7092 175.743 87.4077 175.715H90.6467C92.3942 175.735 94.129 175.417 95.7555 174.778C97.2397 174.191 98.5928 173.316 99.7364 172.203C100.848 171.133 101.73 169.847 102.328 168.424C102.942 166.97 103.255 165.406 103.247 163.827C103.256 162.785 103.123 161.747 102.85 160.742L102.855 160.738Z" fill="#373737"/>
<path d="M126.474 157.118H105.501L106.219 165.804H118.108C119.386 165.83 120.659 165.633 121.869 165.223C122.855 164.891 123.755 164.344 124.503 163.621C125.189 162.958 125.72 162.152 126.058 161.26C126.411 160.34 126.588 159.362 126.58 158.377C126.581 157.956 126.547 157.535 126.479 157.12L126.474 157.118ZM123.828 151.701L115.902 142.018L109.732 147.963L114.359 153.398H125.099C124.71 152.803 124.286 152.233 123.829 151.689L123.828 151.701Z" fill="#373737"/>
</g>
<defs>
<clipPath id="clip0_988_9705">
<rect width="128.807" height="180" fill="white" transform="translate(0.25)"/>
</clipPath>
</defs>
</svg>
