<svg width="130" height="180" viewBox="0 0 130 180" fill="none" xmlns="http://www.w3.org/2000/svg">
<path d="M72.1238 66.714L64.7029 80.5205L84.1362 89.056L72.1238 66.714ZM87.0517 92.3668C87.0344 92.3683 87.017 92.3683 86.9997 92.3668C86.873 92.4199 86.737 92.4466 86.5998 92.4453C86.5087 92.4463 86.4178 92.4348 86.3298 92.4111C86.3018 92.4104 86.2746 92.4013 86.2518 92.3849H86.2258C86.2174 92.3818 86.2082 92.3818 86.1998 92.3849C86.1387 92.3736 86.0815 92.3466 86.0338 92.3064L63.6371 82.4748L48.7092 110.249L56.764 128.723L101.904 86.3471L87.0377 92.3849L87.0517 92.3668Z" fill="#FF8800"/>
<path d="M86.496 91.7976H86.47C86.4786 91.796 86.4874 91.796 86.496 91.7976C86.53 91.7976 86.574 91.7976 86.61 91.7976C86.5705 91.7975 86.5316 91.7885 86.496 91.7715V91.7976Z" fill="#091B45"/>
<path d="M56.7802 0.088501L48.7253 18.5623L63.6532 46.3243L86.184 36.4403C86.2116 36.4266 86.2404 36.4151 86.2699 36.4061C86.3119 36.3916 86.3556 36.3828 86.3999 36.38C86.4706 36.3588 86.5443 36.3499 86.6179 36.3538C86.755 36.3528 86.8911 36.3795 87.0178 36.4323C87.0429 36.4437 87.069 36.4525 87.0958 36.4585L101.72 42.295L56.7802 0.088501ZM64.705 48.2685L72.126 62.075L84.1402 39.735L64.707 48.2705L64.705 48.2685ZM101.616 44.6096L87.1138 38.8313L73.3698 64.4056L87.1138 89.9658L91.5852 88.1545L105.609 82.4809V46.1774L101.61 44.6015L101.616 44.6096Z" fill="#52FEFD"/>
<path d="M46.9757 19.9349L24.2109 27.124L42.4083 62.0227L46.5397 54.1071C46.6568 53.8957 46.8317 53.7225 47.0437 53.608L61.6416 47.2079L46.9677 19.9249L46.9757 19.9349ZM62.6854 49.1601L48.2875 55.4717L43.6362 64.4037L48.2895 73.3336L62.6874 79.6553L70.8643 64.4037L62.6854 49.1601ZM32.3098 6.98579L24.6029 24.6968L46.7077 17.711L54.4226 0L32.3098 6.98579ZM47.0636 75.1893C46.8394 75.0859 46.6558 74.9103 46.5417 74.6901L42.3923 66.7665L24.1949 101.665L46.9597 108.862L61.6256 81.5813L47.0537 75.1812L47.0636 75.1893ZM46.7077 111.096L24.6109 104.1L32.3178 121.811L54.4326 128.807L46.7077 111.096Z" fill="white"/>
<path d="M20.7579 170.022C21.1016 170.022 21.4221 170.004 21.7248 169.981V178.656C21.4939 178.668 21.2625 178.674 21.0307 178.674H14.5826C12.8846 178.703 11.1961 178.414 9.60479 177.82C8.19869 177.287 6.92815 176.448 5.88436 175.365C4.83567 174.249 4.03858 172.92 3.54682 171.469C2.98185 169.801 2.70514 168.048 2.72854 166.287V156.863H10.8868V166.509C10.8551 166.991 10.9277 167.474 11.0998 167.926C11.2718 168.377 11.5392 168.786 11.8837 169.125C12.8023 169.809 13.9411 170.13 15.0818 170.026H20.7579V170.022Z" fill="white"/>
<path d="M33.4249 152.622V166.011C33.4363 167.686 33.1471 169.349 32.5711 170.921C32.0256 172.414 31.1914 173.785 30.1163 174.955C29.0216 176.126 27.6939 177.055 26.2186 177.683C25.9104 177.819 25.5953 177.932 25.2639 178.039V152.622H33.4249Z" fill="white"/>
<path d="M54.5103 157.285H36.8955C36.9768 156.897 37.082 156.514 37.2105 156.139C37.5822 155.006 38.1751 153.958 38.9548 153.056C39.7348 152.159 40.6949 151.438 41.7724 150.938C42.9589 150.394 44.2522 150.124 45.557 150.148C46.7513 150.143 47.9389 150.327 49.0756 150.693C50.1696 151.045 51.1711 151.636 52.0063 152.425C52.8919 153.288 53.5764 154.335 54.0111 155.493C54.2387 156.074 54.4096 156.676 54.5212 157.29L54.5103 157.285Z" fill="white"/>
<path d="M54.7476 160.826V167.768C54.7785 169.553 54.4974 171.33 53.917 173.018C53.4162 174.446 52.608 175.746 51.5495 176.827C50.5211 177.851 49.2849 178.641 47.9245 179.146C46.4603 179.684 44.9103 179.952 43.3503 179.935H36.6336L36.1359 171.232H43.8427C44.5901 171.307 45.3384 171.097 45.9375 170.644C46.1603 170.385 46.3287 170.084 46.4328 169.759C46.5368 169.434 46.5743 169.091 46.543 168.751H45.8256C44.269 168.796 42.7155 168.584 41.2283 168.122C40.152 167.78 39.1818 167.167 38.4107 166.342C37.7148 165.536 37.2331 164.567 37.0101 163.525C36.8123 162.635 36.6932 161.73 36.6541 160.819H54.7476V160.826Z" fill="white"/>
<path d="M71.2345 157.231V166.778C71.2448 168.411 70.953 170.032 70.3739 171.559C69.8361 173.012 69.0292 174.351 67.9954 175.505C66.9639 176.642 65.7108 177.557 64.3132 178.193C62.8193 178.869 61.1945 179.207 59.5549 179.183H57.3101L56.5859 170.532H58.5675C59.8024 170.651 61.0365 170.298 62.0207 169.542C62.3514 169.221 62.6118 168.835 62.7856 168.408C62.9593 167.982 63.0425 167.523 63.0299 167.063V157.243H71.2345V157.231Z" fill="white"/>
<path d="M71.2331 147.341H63.0286V153.523H71.2331V147.341Z" fill="white"/>
<path d="M22.7816 152.692H14.5825V158.869H22.7816V152.692Z" fill="white"/>
<path d="M101.764 146.22H94.6031C93.3403 146.205 92.0868 146.437 90.9127 146.902C89.8477 147.322 88.8864 147.968 88.0951 148.795C87.3128 149.633 86.7075 150.619 86.3153 151.696C86.0894 152.29 85.9285 152.907 85.8353 153.536H102.191L101.764 146.233V146.22ZM102.855 160.738C102.601 159.837 102.147 159.006 101.527 158.305C101.127 157.883 100.667 157.521 100.163 157.232H85.6866V164.547H94.3781C94.4715 164.547 94.5639 164.567 94.6488 164.606C94.7338 164.645 94.8094 164.701 94.8704 164.772C94.9449 164.842 95.0044 164.927 95.0452 165.02C95.086 165.114 95.1073 165.215 95.1077 165.317C95.0965 165.587 95.0099 165.847 94.8577 166.07C94.7056 166.292 94.494 166.467 94.2472 166.575C93.2656 166.98 92.2034 167.15 91.1445 167.073H87.896C86.7554 167.175 85.6169 166.854 84.6979 166.171C84.354 165.832 84.0875 165.423 83.9166 164.972C83.7457 164.52 83.6745 164.037 83.7078 163.555V157.226H75.5536V163.325C75.527 165.087 75.8038 166.84 76.3719 168.507C76.8571 169.96 77.6551 171.289 78.7095 172.4C79.7514 173.485 81.0224 174.323 82.4299 174.854C84.0205 175.451 85.7092 175.743 87.4077 175.715H90.6467C92.3942 175.735 94.129 175.417 95.7555 174.778C97.2397 174.192 98.5928 173.316 99.7364 172.203C100.848 171.133 101.73 169.847 102.328 168.424C102.942 166.97 103.255 165.406 103.247 163.827C103.256 162.785 103.123 161.747 102.85 160.742L102.855 160.738Z" fill="white"/>
<path d="M126.474 157.118H105.501L106.219 165.804H118.108C119.386 165.83 120.659 165.633 121.869 165.223C122.855 164.891 123.755 164.344 124.503 163.621C125.189 162.958 125.72 162.152 126.058 161.26C126.411 160.34 126.588 159.362 126.58 158.377C126.581 157.956 126.547 157.535 126.479 157.12L126.474 157.118ZM123.828 151.701L115.902 142.018L109.732 147.963L114.359 153.398H125.099C124.71 152.803 124.286 152.233 123.829 151.689L123.828 151.701Z" fill="white"/>
</svg>
